<?xml version="1.0" encoding="UTF-8" standalone="no"?>
<svg
   version="1.1"
   id="Layer_1"
   x="0px"
   y="0px"
   width="100%"
   viewBox="0 0 512 512"
   enable-background="new 0 0 512 512"
   xml:space="preserve"
   sodipodi:docname="furniturelogin.svg"
   inkscape:version="1.4.2 (f4327f4, 2025-05-13)"
   xmlns:inkscape="http://www.inkscape.org/namespaces/inkscape"
   xmlns:sodipodi="http://sodipodi.sourceforge.net/DTD/sodipodi-0.dtd"
   xmlns="http://www.w3.org/2000/svg"
   xmlns:svg="http://www.w3.org/2000/svg"><defs
   id="defs15" /><sodipodi:namedview
   id="namedview15"
   pagecolor="#000000"
   bordercolor="#000000"
   borderopacity="0.25"
   inkscape:showpageshadow="2"
   inkscape:pageopacity="0.0"
   inkscape:pagecheckerboard="0"
   inkscape:deskcolor="#d1d1d1"
   inkscape:zoom="2.2792969"
   inkscape:cx="256.43873"
   inkscape:cy="256"
   inkscape:window-width="2560"
   inkscape:window-height="1369"
   inkscape:window-x="-8"
   inkscape:window-y="-8"
   inkscape:window-maximized="1"
   inkscape:current-layer="Layer_1" />
<path
   fill="#010100"
   opacity="1.000000"
   stroke="none"
   d=" M341.000000,513.000000   C227.360947,513.000000 114.221886,513.000000 1.041413,513.000000   C1.041413,342.402588 1.041413,171.805161 1.041413,1.103867   C171.555725,1.103867 342.111542,1.103867 512.833679,1.103867   C512.833679,171.666534 512.833679,342.333252 512.833679,513.000000   C455.805145,513.000000 398.652557,513.000000 341.000000,513.000000  M162.923874,131.173920   C172.283905,131.110184 181.643936,131.046448 191.312012,131.184921   C191.594696,130.938049 191.877365,130.691193 192.160049,130.444321   C191.772064,130.299561 191.384094,130.154816 190.492920,129.518204   C183.090851,125.843170 175.379639,123.741379 166.385208,124.713844   C159.675385,125.118591 153.412109,126.891708 146.783539,131.012390   C152.551743,131.012390 157.275101,131.012390 162.923874,131.173920  M354.081726,162.705521   C350.808533,162.705521 347.535370,162.705521 344.459686,162.705521   C344.133301,163.426865 343.888153,163.716583 343.887177,164.007126   C343.843506,176.787125 343.785858,189.567291 343.808594,202.347290   C343.825043,211.590637 347.770355,215.244812 357.953308,214.925751   C363.264801,214.929443 368.582550,215.095947 373.886078,214.892136   C379.457794,214.678024 383.872986,210.967789 383.964111,205.808197   C384.215393,191.581192 384.050995,177.346832 384.050995,162.939590   C374.123840,162.939590 364.556427,162.939590 354.081726,162.705521  M451.809418,297.280579   C457.688965,311.274475 462.237823,325.826660 458.499298,340.908386   C452.750702,364.099121 459.510803,384.152679 471.480469,403.358307   C472.174896,404.472534 473.554810,405.797943 474.697876,405.879944   C478.899231,406.181305 483.135193,405.999451 487.358154,405.999451   C487.960846,405.143677 488.563568,404.287933 489.166260,403.432159   C487.303558,402.457642 485.180756,401.788879 483.619049,400.460480   C470.504272,389.304810 462.688354,375.499359 466.288300,357.955902   C467.943634,349.888977 472.011444,342.115814 476.026184,334.779053   C483.003235,322.028809 485.119537,308.982422 481.127502,294.192444   C478.210693,287.002533 475.352905,279.787476 472.312103,272.650421   C471.867279,271.606354 470.562073,270.213593 469.635803,270.198975   C458.773743,270.027649 447.908020,270.089111 436.805573,270.089111   C441.973175,279.329834 446.799255,287.959900 451.809418,297.280579  M62.841217,296.070221   C67.512802,287.565033 72.184387,279.059845 77.119797,270.074341   C66.264343,270.074341 55.680740,270.020752 45.099617,270.158020   C44.051796,270.171600 42.452068,271.113617 42.068733,272.027496   C38.881264,279.626465 35.919506,287.320129 32.403946,295.589386   C28.840563,310.791290 31.587032,324.628632 39.943195,337.946838   C54.622829,361.343506 50.622101,383.718903 29.487078,401.297607   C28.234180,402.339691 27.270515,403.729553 25.854069,405.313354   C39.337322,407.650269 41.149368,406.910889 46.724899,396.327240   C55.445137,379.774231 60.685738,362.575745 55.955547,343.633392   C53.352280,333.208466 54.031147,322.828705 56.949581,312.601288   C58.493675,307.190125 60.527805,301.918793 62.841217,296.070221  M147.093353,149.014450   C142.278641,149.008667 137.447189,148.775772 132.658920,149.128754   C131.125824,149.241760 128.975540,150.561935 128.343704,151.909378   C115.351608,179.616409 136.311996,213.456177 167.907959,214.830139   C200.865555,215.623734 223.850021,183.462006 211.916428,153.241547   C211.013062,150.953873 210.400711,148.859940 206.919891,148.904526   C187.289581,149.155960 167.655411,149.107788 147.093353,149.014450  M296.499786,252.330841   C362.602905,252.330841 428.706024,252.330841 494.961670,252.330841   C494.961670,245.547577 494.961670,239.312836 494.961670,232.669159   C492.561920,232.669159 490.433960,232.669159 488.306000,232.669159   C350.147095,232.669159 211.988190,232.670059 73.829285,232.667038   C64.786095,232.666840 62.605476,231.107880 60.548599,223.216644   C56.937809,223.216644 53.316048,223.216644 49.767487,223.216644   C47.176441,231.250809 45.219009,232.647507 36.683144,232.666519   C30.769039,232.679688 24.854887,232.669037 19.144062,232.669037   C19.144062,239.699326 19.144062,245.938278 19.144062,252.330872   C111.520584,252.330872 203.510162,252.330872 296.499786,252.330841  M259.403503,299.679688   C267.034027,299.081787 274.673523,298.577911 282.291718,297.850922   C286.918304,297.409454 290.661926,298.577820 292.561768,303.051239   C294.378479,307.328888 297.085205,304.040680 299.185547,303.811737   C300.467590,303.671936 302.487457,301.704651 302.550415,300.475006   C302.813110,295.342865 305.473450,292.581879 310.082367,291.136658   C334.240295,283.561646 358.936737,281.221588 384.097839,283.597107   C397.966797,284.906494 411.820923,286.372955 426.850067,287.886230   C423.086609,282.697815 419.772766,278.390900 416.760254,273.882629   C414.805847,270.957886 412.470490,269.973114 408.910919,269.983612   C364.429840,270.114502 319.948242,270.069275 275.466797,270.069275   C218.657150,270.069275 161.847473,270.058136 105.037895,270.118652   C103.175903,270.120636 100.556587,270.208618 99.584122,271.354492   C95.333549,276.362976 91.560875,281.777008 86.940620,287.943634   C99.039497,286.694031 109.778809,285.713684 120.485222,284.453888   C148.248795,281.186951 175.664993,282.220459 202.487442,290.817719   C220.694382,296.653534 239.315201,299.763336 259.403503,299.679688  M232.054138,178.076340   C231.834991,179.963318 231.615845,181.850296 231.369202,183.973969   C239.531250,182.762329 247.130051,180.522583 249.777313,172.538254   C253.948654,159.957199 256.923828,146.979553 260.473083,133.920792   C253.842850,134.635574 250.344421,138.397430 247.914169,144.069046   C245.450272,149.819260 243.471024,156.711487 239.040924,160.452957   C233.248016,165.345428 232.433929,170.795151 232.054138,178.076340  z"
   id="path1"
   style="fill:#010101;fill-opacity:0" />
<path
   fill="#FCD577"
   opacity="1.000000"
   stroke="none"
   d=" M295.999756,252.330856   C203.510162,252.330872 111.520584,252.330872 19.144062,252.330872   C19.144062,245.938278 19.144062,239.699326 19.144062,232.669037   C24.854887,232.669037 30.769039,232.679688 36.683144,232.666519   C45.219009,232.647507 47.176441,231.250809 49.767487,223.216644   C53.316048,223.216644 56.937809,223.216644 60.548599,223.216644   C62.605476,231.107880 64.786095,232.666840 73.829285,232.667038   C211.988190,232.670059 350.147095,232.669159 488.306000,232.669159   C490.433960,232.669159 492.561920,232.669159 494.961670,232.669159   C494.961670,239.312836 494.961670,245.547577 494.961670,252.330841   C428.706024,252.330841 362.602905,252.330841 295.999756,252.330856  z"
   id="path2" />
<path
   fill="#E6C068"
   opacity="1.000000"
   stroke="none"
   d=" M258.927063,299.679688   C239.315201,299.763336 220.694382,296.653534 202.487442,290.817719   C175.664993,282.220459 148.248795,281.186951 120.485222,284.453888   C109.778809,285.713684 99.039497,286.694031 86.940620,287.943634   C91.560875,281.777008 95.333549,276.362976 99.584122,271.354492   C100.556587,270.208618 103.175903,270.120636 105.037895,270.118652   C161.847473,270.058136 218.657150,270.069275 275.466797,270.069275   C319.948242,270.069275 364.429840,270.114502 408.910919,269.983612   C412.470490,269.973114 414.805847,270.957886 416.760254,273.882629   C419.772766,278.390900 423.086609,282.697815 426.850067,287.886230   C411.820923,286.372955 397.966797,284.906494 384.097839,283.597107   C358.936737,281.221588 334.240295,283.561646 310.082367,291.136658   C305.473450,292.581879 302.813110,295.342865 302.550415,300.475006   C302.487457,301.704651 300.467590,303.671936 299.185547,303.811737   C297.085205,304.040680 294.378479,307.328888 292.561768,303.051239   C290.661926,298.577820 286.918304,297.409454 282.291718,297.850922   C274.673523,298.577911 267.034027,299.081787 258.927063,299.679688  z"
   id="path3" />
<path
   fill="#CEDBE4"
   opacity="1.000000"
   stroke="none"
   d=" M148.022568,149.161758   C167.655411,149.107788 187.289581,149.155960 206.919891,148.904526   C210.400711,148.859940 211.013062,150.953873 211.916428,153.241547   C223.850021,183.462006 200.865555,215.623734 167.392090,214.411392   C162.479614,209.485336 157.356522,205.481216 153.821457,200.377213   C142.821060,184.494659 141.195908,167.226730 148.022568,149.161758  z"
   id="path4" />
<path
   fill="#F8D175"
   opacity="1.000000"
   stroke="none"
   d=" M62.340698,296.584351   C60.527805,301.918793 58.493675,307.190125 56.949581,312.601288   C54.031147,322.828705 53.352280,333.208466 55.955547,343.633392   C60.685738,362.575745 55.445137,379.774231 46.724899,396.327240   C41.149368,406.910889 39.337322,407.650269 25.854069,405.313354   C27.270515,403.729553 28.234180,402.339691 29.487078,401.297607   C50.622101,383.718903 54.622829,361.343506 39.943195,337.946838   C31.587032,324.628632 28.840563,310.791290 33.122780,295.293701   C41.547947,295.001190 49.256439,294.907562 56.959003,295.079407   C58.763195,295.119659 60.547333,296.058777 62.340698,296.584351  z"
   id="path5" />
<path
   fill="#F8D175"
   opacity="1.000000"
   stroke="none"
   d=" M481.067902,294.991577   C485.119537,308.982422 483.003235,322.028809 476.026184,334.779053   C472.011444,342.115814 467.943634,349.888977 466.288300,357.955902   C462.688354,375.499359 470.504272,389.304810 483.619049,400.460480   C485.180756,401.788879 487.303558,402.457642 489.166260,403.432159   C488.563568,404.287933 487.960846,405.143677 487.358154,405.999451   C483.135193,405.999451 478.899231,406.181305 474.697876,405.879944   C473.554810,405.797943 472.174896,404.472534 471.480469,403.358307   C459.510803,384.152679 452.750702,364.099121 458.499298,340.908386   C462.237823,325.826660 457.688965,311.274475 452.020264,296.590179   C453.967224,295.602325 455.700378,295.069458 457.439911,295.047882   C465.314941,294.950165 473.191742,294.996887 481.067902,294.991577  z"
   id="path6" />
<path
   fill="#CFDCE5"
   opacity="1.000000"
   stroke="none"
   d=" M354.989044,162.939590   C364.556427,162.939590 374.123840,162.939590 384.050995,162.939590   C384.050995,177.346832 384.215393,191.581192 383.964111,205.808197   C383.872986,210.967789 379.457794,214.678024 373.886078,214.892136   C368.582550,215.095947 363.264801,214.929443 357.477081,214.459137   C356.331818,208.938904 355.206451,203.896210 355.085144,198.829483   C354.798828,186.872269 354.990631,174.903610 354.989044,162.939590  z"
   id="path7" />
<path
   fill="#B8C4CA"
   opacity="1.000000"
   stroke="none"
   d=" M147.557953,149.088104   C141.195908,167.226730 142.821060,184.494659 153.821457,200.377213   C157.356522,205.481216 162.479614,209.485336 166.963562,214.296265   C136.311996,213.456177 115.351608,179.616409 128.343704,151.909378   C128.975540,150.561935 131.125824,149.241760 132.658920,149.128754   C137.447189,148.775772 142.278641,149.008667 147.557953,149.088104  z"
   id="path8" />
<path
   fill="#E7C169"
   opacity="1.000000"
   stroke="none"
   d=" M481.097717,294.592010   C473.191742,294.996887 465.314941,294.950165 457.439911,295.047882   C455.700378,295.069458 453.967224,295.602325 451.928223,296.244873   C446.799255,287.959900 441.973175,279.329834 436.805573,270.089111   C447.908020,270.089111 458.773743,270.027649 469.635803,270.198975   C470.562073,270.213593 471.867279,271.606354 472.312103,272.650421   C475.352905,279.787476 478.210693,287.002533 481.097717,294.592010  z"
   id="path9" />
<path
   fill="#E7C169"
   opacity="1.000000"
   stroke="none"
   d=" M62.590958,296.327271   C60.547333,296.058777 58.763195,295.119659 56.959003,295.079407   C49.256439,294.907562 41.547947,295.001190 33.365593,294.991577   C35.919506,287.320129 38.881264,279.626465 42.068733,272.027496   C42.452068,271.113617 44.051796,270.171600 45.099617,270.158020   C55.680740,270.020752 66.264343,270.074341 77.119797,270.074341   C72.184387,279.059845 67.512802,287.565033 62.590958,296.327271  z"
   id="path10" />
<path
   fill="#CAD6DF"
   opacity="1.000000"
   stroke="none"
   d=" M232.098724,177.627533   C232.433929,170.795151 233.248016,165.345428 239.040924,160.452957   C243.471024,156.711487 245.450272,149.819260 247.914169,144.069046   C250.344421,138.397430 253.842850,134.635574 260.473083,133.920792   C256.923828,146.979553 253.948654,159.957199 249.777313,172.538254   C247.130051,180.522583 239.531250,182.762329 231.369202,183.973969   C231.615845,181.850296 231.834991,179.963318 232.098724,177.627533  z"
   id="path11" />
<path
   fill="#B8C4CA"
   opacity="1.000000"
   stroke="none"
   d=" M354.535400,162.822556   C354.990631,174.903610 354.798828,186.872269 355.085144,198.829483   C355.206451,203.896210 356.331818,208.938904 357.017090,214.377350   C347.770355,215.244812 343.825043,211.590637 343.808594,202.347290   C343.785858,189.567291 343.843506,176.787125 343.887177,164.007126   C343.888153,163.716583 344.133301,163.426865 344.459686,162.705521   C347.535370,162.705521 350.808533,162.705521 354.535400,162.822556  z"
   id="path12" />
<path
   fill="#CAD6DF"
   opacity="1.000000"
   stroke="none"
   d=" M167.026382,124.906876   C175.379639,123.741379 183.090851,125.843170 190.749725,130.007263   C191.006531,130.496338 191.003967,130.982712 191.003967,130.982712   C181.643936,131.046448 172.283905,131.110184 162.496567,130.750183   C163.721634,128.519913 165.374008,126.713394 167.026382,124.906876  z"
   id="path13" />
<path
   fill="#B8C4CA"
   opacity="1.000000"
   stroke="none"
   d=" M166.705795,124.810356   C165.374008,126.713394 163.721634,128.519913 162.033859,130.669418   C157.275101,131.012390 152.551743,131.012390 146.783539,131.012390   C153.412109,126.891708 159.675385,125.118591 166.705795,124.810356  z"
   id="path14" />
<path
   fill="#B8C4CA"
   opacity="1.000000"
   stroke="none"
   d=" M191.157990,131.083817   C191.003967,130.982712 191.006531,130.496338 191.001312,130.253204   C191.384094,130.154816 191.772064,130.299561 192.160049,130.444321   C191.877365,130.691193 191.594696,130.938049 191.157990,131.083817  z"
   id="path15" />
</svg>
